<svg xmlns="http://www.w3.org/2000/svg" xmlns:xlink="http://www.w3.org/1999/xlink" xmlns:lucid="lucid" width="1240" height="1373.09"><g transform="translate(-420 -157.91373239413338)" lucid:page-tab-id="20.Ioq_cvnAt"><path d="M640 320h320v320H640z" stroke="#333" stroke-width="2" fill="#fff"/><path d="M640 357.6h320M640 520.25h320" stroke="#333" stroke-width="2" fill="none"/><use xlink:href="#a" transform="matrix(1,0,0,1,648,328) translate(132.025 14.6)"/><use xlink:href="#b" transform="matrix(1,0,0,1,652,365.6) translate(0 44.69999999999999)"/><use xlink:href="#c" transform="matrix(1,0,0,1,652,365.6) translate(62.900000000000006 44.69999999999999)"/><use xlink:href="#d" transform="matrix(1,0,0,1,652,365.6) translate(0 66.3)"/><use xlink:href="#e" transform="matrix(1,0,0,1,652,365.6) translate(52.85000000000001 66.3)"/><use xlink:href="#f" transform="matrix(1,0,0,1,652,365.6) translate(0 87.9)"/><use xlink:href="#e" transform="matrix(1,0,0,1,652,365.6) translate(86.9 87.9)"/><use xlink:href="#g" transform="matrix(1,0,0,1,652,365.6) translate(0 109.5)"/><use xlink:href="#h" transform="matrix(1,0,0,1,652,365.6) translate(39.9 109.5)"/><use xlink:href="#i" transform="matrix(1,0,0,1,652,528.25) translate(0 44.8)"/><use xlink:href="#j" transform="matrix(1,0,0,1,652,528.25) translate(0 66.4)"/><path d="M680 185.9a8 8 0 0 1 8-8h836.75a8 8 0 0 1 8 8v25.17a8 8 0 0 1-8 8H688a8 8 0 0 1-8-8z" stroke="#000" stroke-opacity="0" stroke-width="2" fill="#fff" fill-opacity="0"/><use xlink:href="#k" transform="matrix(1,0,0,1,684,181.91373239413338) translate(333.4495061728395 25.782777777777778)"/><use xlink:href="#l" transform="matrix(1,0,0,1,684,181.91373239413338) translate(429.451975308642 25.782777777777778)"/><path d="M956.48 217.73h309.36M956.5 217.73h-1.02M1265.82 217.73h1.02" stroke="#a9afb8" stroke-width="2" fill="none"/><path d="M680 227.07a8 8 0 0 1 8-8h837.7a8 8 0 0 1 8 8v2.84a8 8 0 0 1-8 8H688a8 8 0 0 1-8-8z" stroke="#000" stroke-opacity="0" stroke-width="2" fill="#fff" fill-opacity="0"/><use xlink:href="#m" transform="matrix(1,0,0,1,684.0000000000005,223.06895635103217) translate(328.3499691358025 14.917037037037037)"/><use xlink:href="#n" transform="matrix(1,0,0,1,684.0000000000005,223.06895635103217) translate(357.20048353909465 14.917037037037037)"/><use xlink:href="#o" transform="matrix(1,0,0,1,684.0000000000005,223.06895635103217) translate(400.4975 14.917037037037037)"/><use xlink:href="#p" transform="matrix(1,0,0,1,684.0000000000005,223.06895635103217) translate(412.9469855967078 14.917037037037037)"/><use xlink:href="#q" transform="matrix(1,0,0,1,684.0000000000005,223.06895635103217) translate(464.7844341563786 14.917037037037037)"/><use xlink:href="#r" transform="matrix(1,0,0,1,684.0000000000005,223.06895635103217) translate(490.27826131687243 14.917037037037037)"/><path d="M440 719.1h320v317H440z" stroke="#333" stroke-width="2" fill="#fff"/><path d="M440 756.7h320M440 907.33h320" stroke="#333" stroke-width="2" fill="none"/><use xlink:href="#s" transform="matrix(1,0,0,1,448,727.0862676056338) translate(113.57499999999999 14.6)"/><use xlink:href="#b" transform="matrix(1,0,0,1,452,764.6862676056338) translate(0 38.69999999999999)"/><use xlink:href="#c" transform="matrix(1,0,0,1,452,764.6862676056338) translate(62.900000000000006 38.69999999999999)"/><use xlink:href="#d" transform="matrix(1,0,0,1,452,764.6862676056338) translate(0 60.29999999999999)"/><use xlink:href="#e" transform="matrix(1,0,0,1,452,764.6862676056338) translate(52.85000000000001 60.29999999999999)"/><use xlink:href="#f" transform="matrix(1,0,0,1,452,764.6862676056338) translate(0 81.9)"/><use xlink:href="#e" transform="matrix(1,0,0,1,452,764.6862676056338) translate(86.9 81.9)"/><use xlink:href="#g" transform="matrix(1,0,0,1,452,764.6862676056338) translate(0 103.5)"/><use xlink:href="#t" transform="matrix(1,0,0,1,452,764.6862676056338) translate(39.9 103.5)"/><use xlink:href="#u" transform="matrix(1,0,0,1,452,915.3362676056338) translate(0 39)"/><use xlink:href="#v" transform="matrix(1,0,0,1,452,915.3362676056338) translate(0 60.6)"/><use xlink:href="#w" transform="matrix(1,0,0,1,452,915.3362676056338) translate(0 82.20000000000002)"/><path d="M840 719.1h320v317H840z" stroke="#333" stroke-width="2" fill="#fff"/><path d="M840 756.7h320M840 917.83h320" stroke="#333" stroke-width="2" fill="none"/><use xlink:href="#x" transform="matrix(1,0,0,1,848,727.0862676056338) translate(96.1 14.6)"/><use xlink:href="#y" transform="matrix(1,0,0,1,848,727.0862676056338) translate(167.95 14.6)"/><use xlink:href="#b" transform="matrix(1,0,0,1,852,764.6862676056338) translate(0 44.19999999999999)"/><use xlink:href="#c" transform="matrix(1,0,0,1,852,764.6862676056338) translate(62.900000000000006 44.19999999999999)"/><use xlink:href="#d" transform="matrix(1,0,0,1,852,764.6862676056338) translate(0 65.8)"/><use xlink:href="#e" transform="matrix(1,0,0,1,852,764.6862676056338) translate(52.85000000000001 65.8)"/><use xlink:href="#f" transform="matrix(1,0,0,1,852,764.6862676056338) translate(0 87.4)"/><use xlink:href="#e" transform="matrix(1,0,0,1,852,764.6862676056338) translate(86.9 87.4)"/><use xlink:href="#g" transform="matrix(1,0,0,1,852,764.6862676056338) translate(0 109)"/><use xlink:href="#z" transform="matrix(1,0,0,1,852,764.6862676056338) translate(39.9 109)"/><use xlink:href="#A" transform="matrix(1,0,0,1,852,925.8362676056338) translate(0 43.8)"/><use xlink:href="#B" transform="matrix(1,0,0,1,852,925.8362676056338) translate(0 65.4)"/><path d="M1320 320h320v317h-320z" stroke="#333" stroke-width="2" fill="#fff"/><path d="M1320 357.6h320m-320 172.25h320" stroke="#333" stroke-width="2" fill="none"/><g><use xlink:href="#C" transform="matrix(1,0,0,1,1328,328) translate(129.575 14.6)"/></g><g><use xlink:href="#D" transform="matrix(1,0,0,1,1332,365.6) translate(0 38.89999999999999)"/><use xlink:href="#e" transform="matrix(1,0,0,1,1332,365.6) translate(42.95 38.89999999999999)"/><use xlink:href="#E" transform="matrix(1,0,0,1,1332,365.6) translate(0 60.49999999999999)"/><use xlink:href="#e" transform="matrix(1,0,0,1,1332,365.6) translate(37.9 60.49999999999999)"/><use xlink:href="#F" transform="matrix(1,0,0,1,1332,365.6) translate(0 82.1)"/><use xlink:href="#e" transform="matrix(1,0,0,1,1332,365.6) translate(60.95 82.1)"/><use xlink:href="#G" transform="matrix(1,0,0,1,1332,365.6) translate(0 103.70000000000002)"/><use xlink:href="#e" transform="matrix(1,0,0,1,1332,365.6) translate(55.95 103.70000000000002)"/><use xlink:href="#H" transform="matrix(1,0,0,1,1332,365.6) translate(0 125.30000000000001)"/><use xlink:href="#I" transform="matrix(1,0,0,1,1332,365.6) translate(72.95 125.30000000000001)"/></g><g><use xlink:href="#J" transform="matrix(1,0,0,1,1332,537.85) translate(0 38.8)"/><use xlink:href="#K" transform="matrix(1,0,0,1,1332,537.85) translate(0 60.4)"/></g><path d="M840 1120h320v342H840z" stroke="#333" stroke-width="2" fill="#fff"/><path d="M840 1157.6h320m-320 173.65h320" stroke="#333" stroke-width="2" fill="none"/><g><use xlink:href="#L" transform="matrix(1,0,0,1,848,1128) translate(117.55 14.6)"/></g><g><use xlink:href="#M" transform="matrix(1,0,0,1,852,1165.6) translate(0 50.19999999999999)"/><use xlink:href="#c" transform="matrix(1,0,0,1,852,1165.6) translate(88.9 50.19999999999999)"/><use xlink:href="#b" transform="matrix(1,0,0,1,852,1165.6) translate(0 71.8)"/><use xlink:href="#c" transform="matrix(1,0,0,1,852,1165.6) translate(62.900000000000006 71.8)"/><use xlink:href="#N" transform="matrix(1,0,0,1,852,1165.6) translate(0 93.4)"/><use xlink:href="#O" transform="matrix(1,0,0,1,852,1165.6) translate(108.9 93.4)"/><use xlink:href="#P" transform="matrix(1,0,0,1,852,1165.6) translate(0 115)"/><use xlink:href="#Q" transform="matrix(1,0,0,1,852,1165.6) translate(104.9 115)"/></g><g><use xlink:href="#R" transform="matrix(1,0,0,1,852,1339.25) translate(0 50.3)"/><use xlink:href="#S" transform="matrix(1,0,0,1,852,1339.25) translate(0 71.9)"/></g><path d="M1320 719.1h320v317h-320z" stroke="#333" stroke-width="2" fill="#fff"/><path d="M1320 756.7h320m-320 204.44h320" stroke="#333" stroke-width="2" fill="none"/><g><use xlink:href="#T" transform="matrix(1,0,0,1,1328,727.0862676056338) translate(111.125 14.6)"/></g><g><use xlink:href="#U" transform="matrix(1,0,0,1,1332,764.6862676056338) translate(0 33.300000000000004)"/><use xlink:href="#c" transform="matrix(1,0,0,1,1332,764.6862676056338) translate(99.95 33.300000000000004)"/><use xlink:href="#b" transform="matrix(1,0,0,1,1332,764.6862676056338) translate(0 54.900000000000006)"/><use xlink:href="#c" transform="matrix(1,0,0,1,1332,764.6862676056338) translate(62.900000000000006 54.900000000000006)"/><use xlink:href="#D" transform="matrix(1,0,0,1,1332,764.6862676056338) translate(0 76.50000000000001)"/><use xlink:href="#e" transform="matrix(1,0,0,1,1332,764.6862676056338) translate(42.95 76.50000000000001)"/><use xlink:href="#V" transform="matrix(1,0,0,1,1332,764.6862676056338) translate(0 98.10000000000002)"/><use xlink:href="#W" transform="matrix(1,0,0,1,1332,764.6862676056338) translate(76.9 98.10000000000002)"/><use xlink:href="#N" transform="matrix(1,0,0,1,1332,764.6862676056338) translate(0 119.70000000000002)"/><use xlink:href="#O" transform="matrix(1,0,0,1,1332,764.6862676056338) translate(108.9 119.70000000000002)"/><use xlink:href="#X" transform="matrix(1,0,0,1,1332,764.6862676056338) translate(0 141.3)"/><use xlink:href="#Y" transform="matrix(1,0,0,1,1332,764.6862676056338) translate(77.95 141.3)"/><use xlink:href="#Z" transform="matrix(1,0,0,1,1332,764.6862676056338) translate(0 162.9)"/><use xlink:href="#Q" transform="matrix(1,0,0,1,1332,764.6862676056338) translate(118.9 162.9)"/></g><g><use xlink:href="#aa" transform="matrix(1,0,0,1,1332,969.1362676056337) translate(0 33.1)"/></g><path d="M600 717.1v-31.56a6 6 0 0 1 6-6h108.7a6 6 0 0 0 6-6V642" stroke="#3a414a" stroke-width="2" fill="none"/><path d="M601 718.1h-2v-1.04h2zM721.7 642.03h-2V641h2z" stroke="#3a414a" stroke-width=".05" fill="#3a414a"/><path d="M1000 717.1v-31.56a6 6 0 0 0-6-6H886.66a6 6 0 0 1-6-6V642" stroke="#3a414a" stroke-width="2" fill="none"/><path d="M1001 718.1h-2v-1.04h2zM881.66 642.03h-2V641h2z" stroke="#3a414a" stroke-width=".05" fill="#3a414a"/><path d="M1162 877.6h156" stroke="#3a414a" stroke-width="2" fill="none"/><path d="M1162.03 878.6H1161v-2h1.03zM1319 878.6h-1.03v-2h1.03z" stroke="#3a414a" stroke-width=".05" fill="#3a414a"/><path d="M1480 639v78.1" stroke="#3a414a" stroke-width="2" fill="none"/><path d="M1481 639.03h-2V638h2zM1481 718.1h-2v-1.04h2z" stroke="#3a414a" stroke-width=".05" fill="#3a414a"/><path d="M1000 1038.1v79.9" stroke="#3a414a" stroke-width="2" fill="none"/><path d="M1001 1038.1h-2v-1h2zM1001 1119h-2v-1.03h2z" stroke="#3a414a" stroke-width=".05" fill="#3a414a"/><path d="M1480 1038.1V1514a6 6 0 0 1-6 6H609.88a6 6 0 0 1-6-6v-475.9" stroke="#3a414a" stroke-width="2" fill="none"/><path d="M1481 1038.1h-2v-1h2zM604.88 1038.1h-2v-1h2z" stroke="#3a414a" stroke-width=".05" fill="#3a414a"/><defs><path fill="#333" d="M238-95c0 69-44 99-111 99C63 4 22-25 22-93v-155h51v151c-1 38 19 59 55 60 90 1 49-130 58-211h52v153" id="ab"/><path fill="#333" d="M137-138c1-29-70-34-71-4 15 46 118 7 119 86 1 83-164 76-172 9l43-7c4 19 20 25 44 25 33 8 57-30 24-41C81-84 22-81 20-136c-2-80 154-74 161-7" id="ac"/><path fill="#333" d="M185-48c-13 30-37 53-82 52C43 2 14-33 14-96s30-98 90-98c62 0 83 45 84 108H66c0 31 8 55 39 56 18 0 30-7 34-22zm-45-69c5-46-57-63-70-21-2 6-4 13-4 21h74" id="ad"/><path fill="#333" d="M135-150c-39-12-60 13-60 57V0H25l-1-190h47c2 13-1 29 3 40 6-28 27-53 61-41v41" id="ae"/><g id="a"><use transform="matrix(0.05,0,0,0.05,0,0)" xlink:href="#ab"/><use transform="matrix(0.05,0,0,0.05,12.950000000000001,0)" xlink:href="#ac"/><use transform="matrix(0.05,0,0,0.05,22.950000000000003,0)" xlink:href="#ad"/><use transform="matrix(0.05,0,0,0.05,32.95,0)" xlink:href="#ae"/></g><path fill="#333" d="M84 4C-5 8 30-112 23-190h32v120c0 31 7 50 39 49 72-2 45-101 50-169h31l1 190h-30c-1-10 1-25-2-33-11 22-28 36-60 37" id="af"/><path fill="#333" d="M135-143c-3-34-86-38-87 0 15 53 115 12 119 90S17 21 10-45l28-5c4 36 97 45 98 0-10-56-113-15-118-90-4-57 82-63 122-42 12 7 21 19 24 35" id="ag"/><path fill="#333" d="M100-194c63 0 86 42 84 106H49c0 40 14 67 53 68 26 1 43-12 49-29l28 8c-11 28-37 45-77 45C44 4 14-33 15-96c1-61 26-98 85-98zm52 81c6-60-76-77-97-28-3 7-6 17-6 28h103" id="ah"/><path fill="#333" d="M114-163C36-179 61-72 57 0H25l-1-190h30c1 12-1 29 2 39 6-27 23-49 58-41v29" id="ai"/><path fill="#333" d="M33 0v-248h34V0H33" id="aj"/><path fill="#333" d="M30-248c118-7 216 8 213 122C240-48 200 0 122 0H30v-248zM63-27c89 8 146-16 146-99s-60-101-146-95v194" id="ak"/><path fill="#333" d="M33-154v-36h34v36H33zM33 0v-36h34V0H33" id="al"/><g id="b"><use transform="matrix(0.05,0,0,0.05,0,0)" xlink:href="#af"/><use transform="matrix(0.05,0,0,0.05,10,0)" xlink:href="#ag"/><use transform="matrix(0.05,0,0,0.05,19,0)" xlink:href="#ah"/><use transform="matrix(0.05,0,0,0.05,29,0)" xlink:href="#ai"/><use transform="matrix(0.05,0,0,0.05,34.95,0)" xlink:href="#aj"/><use transform="matrix(0.05,0,0,0.05,39.95,0)" xlink:href="#ak"/><use transform="matrix(0.05,0,0,0.05,52.900000000000006,0)" xlink:href="#al"/></g><path fill="#333" d="M232-93c-1 65-40 97-104 97C67 4 28-28 28-90v-158h33c8 89-33 224 67 224 102 0 64-133 71-224h33v155" id="am"/><g id="c"><use transform="matrix(0.05,0,0,0.05,0,0)" xlink:href="#am"/><use transform="matrix(0.05,0,0,0.05,12.950000000000001,0)" xlink:href="#am"/><use transform="matrix(0.05,0,0,0.05,25.900000000000002,0)" xlink:href="#aj"/><use transform="matrix(0.05,0,0,0.05,30.900000000000002,0)" xlink:href="#ak"/></g><path fill="#333" d="M210-169c-67 3-38 105-44 169h-31v-121c0-29-5-50-35-48C34-165 62-65 56 0H25l-1-190h30c1 10-1 24 2 32 10-44 99-50 107 0 11-21 27-35 58-36 85-2 47 119 55 194h-31v-121c0-29-5-49-35-48" id="an"/><path fill="#333" d="M141-36C126-15 110 5 73 4 37 3 15-17 15-53c-1-64 63-63 125-63 3-35-9-54-41-54-24 1-41 7-42 31l-33-3c5-37 33-52 76-52 45 0 72 20 72 64v82c-1 20 7 32 28 27v20c-31 9-61-2-59-35zM48-53c0 20 12 33 32 33 41-3 63-29 60-74-43 2-92-5-92 41" id="ao"/><path fill="#333" d="M24-231v-30h32v30H24zM24 0v-190h32V0H24" id="ap"/><path fill="#333" d="M24 0v-261h32V0H24" id="aq"/><g id="d"><use transform="matrix(0.05,0,0,0.05,0,0)" xlink:href="#ah"/><use transform="matrix(0.05,0,0,0.05,10,0)" xlink:href="#an"/><use transform="matrix(0.05,0,0,0.05,24.950000000000003,0)" xlink:href="#ao"/><use transform="matrix(0.05,0,0,0.05,34.95,0)" xlink:href="#ap"/><use transform="matrix(0.05,0,0,0.05,38.900000000000006,0)" xlink:href="#aq"/><use transform="matrix(0.05,0,0,0.05,42.85000000000001,0)" xlink:href="#al"/></g><path fill="#333" d="M185-189c-5-48-123-54-124 2 14 75 158 14 163 119 3 78-121 87-175 55-17-10-28-26-33-46l33-7c5 56 141 63 141-1 0-78-155-14-162-118-5-82 145-84 179-34 5 7 8 16 11 25" id="ar"/><path fill="#333" d="M59-47c-2 24 18 29 38 22v24C64 9 27 4 27-40v-127H5v-23h24l9-43h21v43h35v23H59v120" id="as"/><path fill="#333" d="M117-194c89-4 53 116 60 194h-32v-121c0-31-8-49-39-48C34-167 62-67 57 0H25l-1-190h30c1 10-1 24 2 32 11-22 29-35 61-36" id="at"/><path fill="#333" d="M177-190C167-65 218 103 67 71c-23-6-38-20-44-43l32-5c15 47 100 32 89-28v-30C133-14 115 1 83 1 29 1 15-40 15-95c0-56 16-97 71-98 29-1 48 16 59 35 1-10 0-23 2-32h30zM94-22c36 0 50-32 50-73 0-42-14-75-50-75-39 0-46 34-46 75s6 73 46 73" id="au"/><g id="e"><use transform="matrix(0.05,0,0,0.05,0,0)" xlink:href="#ar"/><use transform="matrix(0.05,0,0,0.05,12,0)" xlink:href="#as"/><use transform="matrix(0.05,0,0,0.05,17,0)" xlink:href="#ai"/><use transform="matrix(0.05,0,0,0.05,22.95,0)" xlink:href="#ap"/><use transform="matrix(0.05,0,0,0.05,26.899999999999995,0)" xlink:href="#at"/><use transform="matrix(0.05,0,0,0.05,36.9,0)" xlink:href="#au"/></g><path fill="#333" d="M115-194c55 1 70 41 70 98S169 2 115 4C84 4 66-9 55-30l1 105H24l-1-265h31l2 30c10-21 28-34 59-34zm-8 174c40 0 45-34 45-75s-6-73-45-74c-42 0-51 32-51 76 0 43 10 73 51 73" id="av"/><path fill="#333" d="M206 0h-36l-40-164L89 0H53L-1-190h32L70-26l43-164h34l41 164 42-164h31" id="aw"/><path fill="#333" d="M100-194c62-1 85 37 85 99 1 63-27 99-86 99S16-35 15-95c0-66 28-99 85-99zM99-20c44 1 53-31 53-75 0-43-8-75-51-75s-53 32-53 75 10 74 51 75" id="ax"/><path fill="#333" d="M85-194c31 0 48 13 60 33l-1-100h32l1 261h-30c-2-10 0-23-3-31C134-8 116 4 85 4 32 4 16-35 15-94c0-66 23-100 70-100zm9 24c-40 0-46 34-46 75 0 40 6 74 45 74 42 0 51-32 51-76 0-42-9-74-50-73" id="ay"/><g id="f"><use transform="matrix(0.05,0,0,0.05,0,0)" xlink:href="#av"/><use transform="matrix(0.05,0,0,0.05,10,0)" xlink:href="#ao"/><use transform="matrix(0.05,0,0,0.05,20,0)" xlink:href="#ag"/><use transform="matrix(0.05,0,0,0.05,29,0)" xlink:href="#ag"/><use transform="matrix(0.05,0,0,0.05,38,0)" xlink:href="#aw"/><use transform="matrix(0.05,0,0,0.05,50.95,0)" xlink:href="#ax"/><use transform="matrix(0.05,0,0,0.05,60.95,0)" xlink:href="#ai"/><use transform="matrix(0.05,0,0,0.05,66.9,0)" xlink:href="#ay"/><use transform="matrix(0.05,0,0,0.05,76.9,0)" xlink:href="#al"/></g><g id="g"><use transform="matrix(0.05,0,0,0.05,0,0)" xlink:href="#ai"/><use transform="matrix(0.05,0,0,0.05,5.95,0)" xlink:href="#ax"/><use transform="matrix(0.05,0,0,0.05,15.949999999999998,0)" xlink:href="#aq"/><use transform="matrix(0.05,0,0,0.05,19.9,0)" xlink:href="#ah"/><use transform="matrix(0.05,0,0,0.05,29.899999999999995,0)" xlink:href="#al"/></g><path fill="#333" d="M233-177c-1 41-23 64-60 70L243 0h-38l-65-103H63V0H30v-248c88 3 205-21 203 71zM63-129c60-2 137 13 137-47 0-61-80-42-137-45v92" id="az"/><g id="h"><use transform="matrix(0.05,0,0,0.05,0,0)" xlink:href="#az"/><use transform="matrix(0.05,0,0,0.05,12.950000000000001,0)" xlink:href="#ax"/><use transform="matrix(0.05,0,0,0.05,22.950000000000003,0)" xlink:href="#aq"/><use transform="matrix(0.05,0,0,0.05,26.900000000000002,0)" xlink:href="#ah"/></g><path fill="#333" d="M96-169c-40 0-48 33-48 73s9 75 48 75c24 0 41-14 43-38l32 2c-6 37-31 61-74 61-59 0-76-41-82-99-10-93 101-131 147-64 4 7 5 14 7 22l-32 3c-4-21-16-35-41-35" id="aA"/><path fill="#333" d="M87 75C49 33 22-17 22-94c0-76 28-126 65-167h31c-38 41-64 92-64 168S80 34 118 75H87" id="aB"/><path fill="#333" d="M33-261c38 41 65 92 65 168S71 34 33 75H2C39 34 66-17 66-93S39-220 2-261h31" id="aC"/><g id="i"><use transform="matrix(0.05,0,0,0.05,0,0)" xlink:href="#aA"/><use transform="matrix(0.05,0,0,0.05,9,0)" xlink:href="#ai"/><use transform="matrix(0.05,0,0,0.05,14.949999999999998,0)" xlink:href="#ah"/><use transform="matrix(0.05,0,0,0.05,24.95,0)" xlink:href="#ao"/><use transform="matrix(0.05,0,0,0.05,34.95,0)" xlink:href="#as"/><use transform="matrix(0.05,0,0,0.05,39.95,0)" xlink:href="#ah"/><use transform="matrix(0.05,0,0,0.05,49.95,0)" xlink:href="#am"/><use transform="matrix(0.05,0,0,0.05,62.900000000000006,0)" xlink:href="#ag"/><use transform="matrix(0.05,0,0,0.05,71.9,0)" xlink:href="#ah"/><use transform="matrix(0.05,0,0,0.05,81.9,0)" xlink:href="#ai"/><use transform="matrix(0.05,0,0,0.05,87.85000000000001,0)" xlink:href="#aB"/><use transform="matrix(0.05,0,0,0.05,93.80000000000001,0)" xlink:href="#aC"/></g><path fill="#333" d="M212-179c-10-28-35-45-73-45-59 0-87 40-87 99 0 60 29 101 89 101 43 0 62-24 78-52l27 14C228-24 195 4 139 4 59 4 22-46 18-125c-6-104 99-153 187-111 19 9 31 26 39 46" id="aD"/><path fill="#333" d="M106-169C34-169 62-67 57 0H25v-261h32l-1 103c12-21 28-36 61-36 89 0 53 116 60 194h-32v-121c2-32-8-49-39-48" id="aE"/><path fill="#333" d="M143 0L79-87 56-68V0H24v-261h32v163l83-92h37l-77 82L181 0h-38" id="aF"/><g id="j"><use transform="matrix(0.05,0,0,0.05,0,0)" xlink:href="#au"/><use transform="matrix(0.05,0,0,0.05,10,0)" xlink:href="#ah"/><use transform="matrix(0.05,0,0,0.05,20,0)" xlink:href="#as"/><use transform="matrix(0.05,0,0,0.05,25,0)" xlink:href="#aD"/><use transform="matrix(0.05,0,0,0.05,37.95,0)" xlink:href="#aE"/><use transform="matrix(0.05,0,0,0.05,47.95,0)" xlink:href="#ah"/><use transform="matrix(0.05,0,0,0.05,57.95,0)" xlink:href="#aA"/><use transform="matrix(0.05,0,0,0.05,66.95,0)" xlink:href="#aF"/><use transform="matrix(0.05,0,0,0.05,75.95,0)" xlink:href="#ax"/><use transform="matrix(0.05,0,0,0.05,85.95,0)" xlink:href="#af"/><use transform="matrix(0.05,0,0,0.05,95.95,0)" xlink:href="#as"/><use transform="matrix(0.05,0,0,0.05,100.95,0)" xlink:href="#ag"/><use transform="matrix(0.05,0,0,0.05,109.95,0)" xlink:href="#aB"/><use transform="matrix(0.05,0,0,0.05,115.9,0)" xlink:href="#aC"/></g><path fill="#a9afb8" d="M24 0v-248h52v208h133V0H24" id="aG"/><path fill="#a9afb8" d="M25-224v-37h50v37H25zM25 0v-190h50V0H25" id="aH"/><path fill="#a9afb8" d="M135-194c52 0 70 43 70 98 0 56-19 99-73 100-30 1-46-15-58-35L72 0H24l1-261h50v104c11-23 29-37 60-37zM114-30c31 0 40-27 40-66 0-37-7-63-39-63s-41 28-41 65c0 36 8 64 40 64" id="aI"/><path fill="#a9afb8" d="M135-150c-39-12-60 13-60 57V0H25l-1-190h47c2 13-1 29 3 40 6-28 27-53 61-41v41" id="aJ"/><path fill="#a9afb8" d="M133-34C117-15 103 5 69 4 32 3 11-16 11-54c-1-60 55-63 116-61 1-26-3-47-28-47-18 1-26 9-28 27l-52-2c7-38 36-58 82-57s74 22 75 68l1 82c-1 14 12 18 25 15v27c-30 8-71 5-69-32zm-48 3c29 0 43-24 42-57-32 0-66-3-65 30 0 17 8 27 23 27" id="aK"/><path fill="#a9afb8" d="M123 10C108 53 80 86 19 72V37c35 8 53-11 59-39L3-190h52l48 148c12-52 28-100 44-148h51" id="aL"/><g id="k"><use transform="matrix(0.0728395061728395,0,0,0.0728395061728395,0,0)" xlink:href="#aG"/><use transform="matrix(0.0728395061728395,0,0,0.0728395061728395,15.95185185185185,0)" xlink:href="#aH"/><use transform="matrix(0.0728395061728395,0,0,0.0728395061728395,23.235802469135802,0)" xlink:href="#aI"/><use transform="matrix(0.0728395061728395,0,0,0.0728395061728395,39.187654320987654,0)" xlink:href="#aJ"/><use transform="matrix(0.0728395061728395,0,0,0.0728395061728395,49.385185185185186,0)" xlink:href="#aK"/><use transform="matrix(0.0728395061728395,0,0,0.0728395061728395,63.953086419753085,0)" xlink:href="#aJ"/><use transform="matrix(0.0728395061728395,0,0,0.0728395061728395,74.15061728395061,0)" xlink:href="#aL"/></g><path fill="#a9afb8" d="M24-248c93 1 206-16 204 79-1 75-69 88-152 82V0H24v-248zm52 121c47 0 100 7 100-41 0-47-54-39-100-39v80" id="aM"/><path fill="#a9afb8" d="M110-194c64 0 96 36 96 99 0 64-35 99-97 99-61 0-95-36-95-99 0-62 34-99 96-99zm-1 164c35 0 45-28 45-65 0-40-10-65-43-65-34 0-45 26-45 65 0 36 10 65 43 65" id="aN"/><path fill="#a9afb8" d="M25-224v-37h50v37H25zM75 22c2 45-34 59-81 51V38c22 5 31-5 31-27v-201h50V22" id="aO"/><path fill="#a9afb8" d="M185-48c-13 30-37 53-82 52C43 2 14-33 14-96s30-98 90-98c62 0 83 45 84 108H66c0 31 8 55 39 56 18 0 30-7 34-22zm-45-69c5-46-57-63-70-21-2 6-4 13-4 21h74" id="aP"/><path fill="#a9afb8" d="M190-63c-7 42-38 67-86 67-59 0-84-38-90-98-12-110 154-137 174-36l-49 2c-2-19-15-32-35-32-30 0-35 28-38 64-6 74 65 87 74 30" id="aQ"/><path fill="#a9afb8" d="M115-3C79 11 28 4 28-45v-112H4v-33h27l15-45h31v45h36v33H77v99c-1 23 16 31 38 25v30" id="aR"/><g id="l"><use transform="matrix(0.0728395061728395,0,0,0.0728395061728395,0,0)" xlink:href="#aM"/><use transform="matrix(0.0728395061728395,0,0,0.0728395061728395,17.48148148148148,0)" xlink:href="#aJ"/><use transform="matrix(0.0728395061728395,0,0,0.0728395061728395,27.679012345679013,0)" xlink:href="#aN"/><use transform="matrix(0.0728395061728395,0,0,0.0728395061728395,43.63086419753086,0)" xlink:href="#aO"/><use transform="matrix(0.0728395061728395,0,0,0.0728395061728395,50.91481481481481,0)" xlink:href="#aP"/><use transform="matrix(0.0728395061728395,0,0,0.0728395061728395,65.48271604938272,0)" xlink:href="#aQ"/><use transform="matrix(0.0728395061728395,0,0,0.0728395061728395,80.05061728395061,0)" xlink:href="#aR"/></g><path fill="#a9afb8" d="M140-251c81 0 123 46 123 126C263-46 219 4 140 4 59 4 17-45 17-125s42-126 123-126zm0 227c63 0 89-41 89-101s-29-99-89-99c-61 0-89 39-89 99S79-25 140-24" id="aS"/><path fill="#a9afb8" d="M210-169c-67 3-38 105-44 169h-31v-121c0-29-5-50-35-48C34-165 62-65 56 0H25l-1-190h30c1 10-1 24 2 32 10-44 99-50 107 0 11-21 27-35 58-36 85-2 47 119 55 194h-31v-121c0-29-5-49-35-48" id="aT"/><g id="m"><use transform="matrix(0.04248971193415638,0,0,0.04248971193415638,0,0)" xlink:href="#aS"/><use transform="matrix(0.04248971193415638,0,0,0.04248971193415638,11.897119341563785,0)" xlink:href="#aT"/></g><path fill="#a9afb8" d="M30-248c87 1 191-15 191 75 0 78-77 80-158 76V0H30v-248zm33 125c57 0 124 11 124-50 0-59-68-47-124-48v98" id="aU"/><path fill="#a9afb8" d="M141-36C126-15 110 5 73 4 37 3 15-17 15-53c-1-64 63-63 125-63 3-35-9-54-41-54-24 1-41 7-42 31l-33-3c5-37 33-52 76-52 45 0 72 20 72 64v82c-1 20 7 32 28 27v20c-31 9-61-2-59-35zM48-53c0 20 12 33 32 33 41-3 63-29 60-74-43 2-92-5-92 41" id="aV"/><path fill="#a9afb8" d="M59-47c-2 24 18 29 38 22v24C64 9 27 4 27-40v-127H5v-23h24l9-43h21v43h35v23H59v120" id="aW"/><path fill="#a9afb8" d="M100-194c63 0 86 42 84 106H49c0 40 14 67 53 68 26 1 43-12 49-29l28 8c-11 28-37 45-77 45C44 4 14-33 15-96c1-61 26-98 85-98zm52 81c6-60-76-77-97-28-3 7-6 17-6 28h103" id="aX"/><path fill="#a9afb8" d="M24 0v-261h32V0H24" id="aY"/><g id="n"><use transform="matrix(0.04248971193415638,0,0,0.04248971193415638,0,0)" xlink:href="#aU"/><use transform="matrix(0.04248971193415638,0,0,0.04248971193415638,10.19753086419753,0)" xlink:href="#aV"/><use transform="matrix(0.04248971193415638,0,0,0.04248971193415638,18.695473251028805,0)" xlink:href="#aW"/><use transform="matrix(0.04248971193415638,0,0,0.04248971193415638,22.944444444444443,0)" xlink:href="#aX"/><use transform="matrix(0.04248971193415638,0,0,0.04248971193415638,31.44238683127572,0)" xlink:href="#aY"/></g><path fill="#a9afb8" d="M32 76v-337h29V76H32" id="aZ"/><use transform="matrix(0.04248971193415638,0,0,0.04248971193415638,0,0)" xlink:href="#aZ" id="o"/><path fill="#a9afb8" d="M205 0l-28-72H64L36 0H1l101-248h38L239 0h-34zm-38-99l-47-123c-12 45-31 82-46 123h93" id="ba"/><path fill="#a9afb8" d="M84 4C-5 8 30-112 23-190h32v120c0 31 7 50 39 49 72-2 45-101 50-169h31l1 190h-30c-1-10 1-25-2-33-11 22-28 36-60 37" id="bb"/><path fill="#a9afb8" d="M177-190C167-65 218 103 67 71c-23-6-38-20-44-43l32-5c15 47 100 32 89-28v-30C133-14 115 1 83 1 29 1 15-40 15-95c0-56 16-97 71-98 29-1 48 16 59 35 1-10 0-23 2-32h30zM94-22c36 0 50-32 50-73 0-42-14-75-50-75-39 0-46 34-46 75s6 73 46 73" id="bc"/><path fill="#a9afb8" d="M135-143c-3-34-86-38-87 0 15 53 115 12 119 90S17 21 10-45l28-5c4 36 97 45 98 0-10-56-113-15-118-90-4-57 82-63 122-42 12 7 21 19 24 35" id="bd"/><g id="p"><use transform="matrix(0.04248971193415638,0,0,0.04248971193415638,0,0)" xlink:href="#ba"/><use transform="matrix(0.04248971193415638,0,0,0.04248971193415638,10.19753086419753,0)" xlink:href="#bb"/><use transform="matrix(0.04248971193415638,0,0,0.04248971193415638,18.695473251028805,0)" xlink:href="#bc"/><use transform="matrix(0.04248971193415638,0,0,0.04248971193415638,27.193415637860078,0)" xlink:href="#bb"/><use transform="matrix(0.04248971193415638,0,0,0.04248971193415638,35.691358024691354,0)" xlink:href="#bd"/><use transform="matrix(0.04248971193415638,0,0,0.04248971193415638,43.3395061728395,0)" xlink:href="#aW"/></g><path fill="#a9afb8" d="M27 0v-27h64v-190l-56 39v-29l58-41h29v221h61V0H27" id="be"/><path fill="#a9afb8" d="M99-251c64 0 84 50 84 122C183-37 130 33 47-8c-14-7-20-23-25-40l30-5c6 39 69 39 84 7 9-19 16-44 16-74-10 22-31 35-62 35-49 0-73-33-73-83 0-54 28-83 82-83zm-1 141c31-1 51-18 51-49 0-36-14-67-51-67-34 0-49 23-49 58 0 34 15 58 49 58" id="bf"/><path fill="#a9afb8" d="M68-38c1 34 0 65-14 84H32c9-13 17-26 17-46H33v-38h35" id="bg"/><g id="q"><use transform="matrix(0.04248971193415638,0,0,0.04248971193415638,0,0)" xlink:href="#be"/><use transform="matrix(0.04248971193415638,0,0,0.04248971193415638,8.497942386831275,0)" xlink:href="#bf"/><use transform="matrix(0.04248971193415638,0,0,0.04248971193415638,16.99588477366255,0)" xlink:href="#bg"/></g><path fill="#a9afb8" d="M101-251c82-7 93 87 43 132L82-64C71-53 59-42 53-27h129V0H18c2-99 128-94 128-182 0-28-16-43-45-43s-46 15-49 41l-32-3c6-41 34-60 81-64" id="bh"/><path fill="#a9afb8" d="M101-251c68 0 85 55 85 127S166 4 100 4C33 4 14-52 14-124c0-73 17-127 87-127zm-1 229c47 0 54-49 54-102s-4-102-53-102c-51 0-55 48-55 102 0 53 5 102 54 102" id="bi"/><g id="r"><use transform="matrix(0.04248971193415638,0,0,0.04248971193415638,0,0)" xlink:href="#bh"/><use transform="matrix(0.04248971193415638,0,0,0.04248971193415638,8.497942386831275,0)" xlink:href="#bi"/><use transform="matrix(0.04248971193415638,0,0,0.04248971193415638,16.99588477366255,0)" xlink:href="#bh"/><use transform="matrix(0.04248971193415638,0,0,0.04248971193415638,25.493827160493822,0)" xlink:href="#bh"/></g><path fill="#333" d="M24 0v-248h52v208h133V0H24" id="bj"/><path fill="#333" d="M25-224v-37h50v37H25zM25 0v-190h50V0H25" id="bk"/><path fill="#333" d="M135-194c52 0 70 43 70 98 0 56-19 99-73 100-30 1-46-15-58-35L72 0H24l1-261h50v104c11-23 29-37 60-37zM114-30c31 0 40-27 40-66 0-37-7-63-39-63s-41 28-41 65c0 36 8 64 40 64" id="bl"/><path fill="#333" d="M133-34C117-15 103 5 69 4 32 3 11-16 11-54c-1-60 55-63 116-61 1-26-3-47-28-47-18 1-26 9-28 27l-52-2c7-38 36-58 82-57s74 22 75 68l1 82c-1 14 12 18 25 15v27c-30 8-71 5-69-32zm-48 3c29 0 43-24 42-57-32 0-66-3-65 30 0 17 8 27 23 27" id="bm"/><path fill="#333" d="M135-194c87-1 58 113 63 194h-50c-7-57 23-157-34-157-59 0-34 97-39 157H25l-1-190h47c2 12-1 28 3 38 12-26 28-41 61-42" id="bn"/><g id="s"><use transform="matrix(0.05,0,0,0.05,0,0)" xlink:href="#bj"/><use transform="matrix(0.05,0,0,0.05,10.950000000000001,0)" xlink:href="#bk"/><use transform="matrix(0.05,0,0,0.05,15.950000000000001,0)" xlink:href="#bl"/><use transform="matrix(0.05,0,0,0.05,26.900000000000002,0)" xlink:href="#ae"/><use transform="matrix(0.05,0,0,0.05,33.900000000000006,0)" xlink:href="#bm"/><use transform="matrix(0.05,0,0,0.05,43.900000000000006,0)" xlink:href="#ae"/><use transform="matrix(0.05,0,0,0.05,50.900000000000006,0)" xlink:href="#bk"/><use transform="matrix(0.05,0,0,0.05,55.900000000000006,0)" xlink:href="#bm"/><use transform="matrix(0.05,0,0,0.05,65.9,0)" xlink:href="#bn"/></g><path fill="#333" d="M205 0l-28-72H64L36 0H1l101-248h38L239 0h-34zm-38-99l-47-123c-12 45-31 82-46 123h93" id="bo"/><path fill="#333" d="M240 0l2-218c-23 76-54 145-80 218h-23L58-218 59 0H30v-248h44l77 211c21-75 51-140 76-211h43V0h-30" id="bp"/><path fill="#333" d="M190 0L58-211 59 0H30v-248h39L202-35l-2-213h31V0h-41" id="bq"/><g id="t"><use transform="matrix(0.05,0,0,0.05,0,0)" xlink:href="#bo"/><use transform="matrix(0.05,0,0,0.05,12,0)" xlink:href="#ak"/><use transform="matrix(0.05,0,0,0.05,24.950000000000003,0)" xlink:href="#bp"/><use transform="matrix(0.05,0,0,0.05,39.900000000000006,0)" xlink:href="#aj"/><use transform="matrix(0.05,0,0,0.05,44.900000000000006,0)" xlink:href="#bq"/></g><path fill="#333" d="M160-131c35 5 61 23 61 61C221 17 115-2 30 0v-248c76 3 177-17 177 60 0 33-19 50-47 57zm-97-11c50-1 110 9 110-42 0-47-63-36-110-37v79zm0 115c55-2 124 14 124-45 0-56-70-42-124-44v89" id="br"/><g id="u"><use transform="matrix(0.05,0,0,0.05,0,0)" xlink:href="#aA"/><use transform="matrix(0.05,0,0,0.05,9,0)" xlink:href="#ai"/><use transform="matrix(0.05,0,0,0.05,14.949999999999998,0)" xlink:href="#ah"/><use transform="matrix(0.05,0,0,0.05,24.95,0)" xlink:href="#ao"/><use transform="matrix(0.05,0,0,0.05,34.95,0)" xlink:href="#as"/><use transform="matrix(0.05,0,0,0.05,39.95,0)" xlink:href="#ah"/><use transform="matrix(0.05,0,0,0.05,49.95,0)" xlink:href="#br"/><use transform="matrix(0.05,0,0,0.05,61.95,0)" xlink:href="#ax"/><use transform="matrix(0.05,0,0,0.05,71.95,0)" xlink:href="#ax"/><use transform="matrix(0.05,0,0,0.05,81.95,0)" xlink:href="#aF"/><use transform="matrix(0.05,0,0,0.05,90.95,0)" xlink:href="#aB"/><use transform="matrix(0.05,0,0,0.05,96.9,0)" xlink:href="#aC"/></g><g id="v"><use transform="matrix(0.05,0,0,0.05,0,0)" xlink:href="#ai"/><use transform="matrix(0.05,0,0,0.05,5.95,0)" xlink:href="#ah"/><use transform="matrix(0.05,0,0,0.05,15.949999999999998,0)" xlink:href="#at"/><use transform="matrix(0.05,0,0,0.05,25.950000000000003,0)" xlink:href="#ah"/><use transform="matrix(0.05,0,0,0.05,35.95,0)" xlink:href="#aw"/><use transform="matrix(0.05,0,0,0.05,48.900000000000006,0)" xlink:href="#br"/><use transform="matrix(0.05,0,0,0.05,60.900000000000006,0)" xlink:href="#ax"/><use transform="matrix(0.05,0,0,0.05,70.9,0)" xlink:href="#ax"/><use transform="matrix(0.05,0,0,0.05,80.9,0)" xlink:href="#aF"/><use transform="matrix(0.05,0,0,0.05,89.9,0)" xlink:href="#aB"/><use transform="matrix(0.05,0,0,0.05,95.85000000000001,0)" xlink:href="#aC"/></g><g id="w"><use transform="matrix(0.05,0,0,0.05,0,0)" xlink:href="#ai"/><use transform="matrix(0.05,0,0,0.05,5.95,0)" xlink:href="#ah"/><use transform="matrix(0.05,0,0,0.05,15.949999999999998,0)" xlink:href="#as"/><use transform="matrix(0.05,0,0,0.05,20.95,0)" xlink:href="#af"/><use transform="matrix(0.05,0,0,0.05,30.950000000000003,0)" xlink:href="#ai"/><use transform="matrix(0.05,0,0,0.05,36.9,0)" xlink:href="#at"/><use transform="matrix(0.05,0,0,0.05,46.9,0)" xlink:href="#br"/><use transform="matrix(0.05,0,0,0.05,58.900000000000006,0)" xlink:href="#ax"/><use transform="matrix(0.05,0,0,0.05,68.9,0)" xlink:href="#ax"/><use transform="matrix(0.05,0,0,0.05,78.9,0)" xlink:href="#aF"/><use transform="matrix(0.05,0,0,0.05,87.9,0)" xlink:href="#aB"/><use transform="matrix(0.05,0,0,0.05,93.85000000000001,0)" xlink:href="#aC"/></g><path fill="#333" d="M240-174c0 40-23 61-54 70L253 0h-59l-57-94H76V0H24v-248c93 4 217-23 216 74zM76-134c48-2 112 12 112-38 0-48-66-32-112-35v73" id="bs"/><path fill="#333" d="M195-6C206 82 75 100 31 46c-4-6-6-13-8-21l49-6c3 16 16 24 34 25 40 0 42-37 40-79-11 22-30 35-61 35-53 0-70-43-70-97 0-56 18-96 73-97 30 0 46 14 59 34l2-30h47zm-90-29c32 0 41-27 41-63 0-35-9-62-40-62-32 0-39 29-40 63 0 36 9 62 39 62" id="bt"/><path fill="#333" d="M85 4C-2 5 27-109 22-190h50c7 57-23 150 33 157 60-5 35-97 40-157h50l1 190h-47c-2-12 1-28-3-38-12 25-28 42-61 42" id="bu"/><path fill="#333" d="M25 0v-261h50V0H25" id="bv"/><g id="x"><use transform="matrix(0.05,0,0,0.05,0,0)" xlink:href="#bs"/><use transform="matrix(0.05,0,0,0.05,12.950000000000001,0)" xlink:href="#ad"/><use transform="matrix(0.05,0,0,0.05,22.950000000000003,0)" xlink:href="#bt"/><use transform="matrix(0.05,0,0,0.05,33.900000000000006,0)" xlink:href="#bu"/><use transform="matrix(0.05,0,0,0.05,44.85000000000001,0)" xlink:href="#bv"/><use transform="matrix(0.05,0,0,0.05,49.85000000000001,0)" xlink:href="#bm"/><use transform="matrix(0.05,0,0,0.05,59.85,0)" xlink:href="#ae"/></g><g id="y"><use transform="matrix(0.05,0,0,0.05,0,0)" xlink:href="#ab"/><use transform="matrix(0.05,0,0,0.05,12.950000000000001,0)" xlink:href="#ac"/><use transform="matrix(0.05,0,0,0.05,22.950000000000003,0)" xlink:href="#ad"/><use transform="matrix(0.05,0,0,0.05,32.95,0)" xlink:href="#ae"/></g><path fill="#333" d="M30 0v-248h187v28H63v79h144v27H63v87h162V0H30" id="bw"/><g id="z"><use transform="matrix(0.05,0,0,0.05,0,0)" xlink:href="#am"/><use transform="matrix(0.05,0,0,0.05,12.950000000000001,0)" xlink:href="#ar"/><use transform="matrix(0.05,0,0,0.05,24.950000000000003,0)" xlink:href="#bw"/><use transform="matrix(0.05,0,0,0.05,36.95,0)" xlink:href="#az"/></g><g id="A"><use transform="matrix(0.05,0,0,0.05,0,0)" xlink:href="#aA"/><use transform="matrix(0.05,0,0,0.05,9,0)" xlink:href="#ai"/><use transform="matrix(0.05,0,0,0.05,14.949999999999998,0)" xlink:href="#ah"/><use transform="matrix(0.05,0,0,0.05,24.95,0)" xlink:href="#ao"/><use transform="matrix(0.05,0,0,0.05,34.95,0)" xlink:href="#as"/><use transform="matrix(0.05,0,0,0.05,39.95,0)" xlink:href="#ah"/><use transform="matrix(0.05,0,0,0.05,49.95,0)" xlink:href="#ar"/><use transform="matrix(0.05,0,0,0.05,61.95,0)" xlink:href="#ah"/><use transform="matrix(0.05,0,0,0.05,71.95,0)" xlink:href="#ag"/><use transform="matrix(0.05,0,0,0.05,80.95,0)" xlink:href="#ag"/><use transform="matrix(0.05,0,0,0.05,89.95,0)" xlink:href="#ap"/><use transform="matrix(0.05,0,0,0.05,93.9,0)" xlink:href="#ax"/><use transform="matrix(0.05,0,0,0.05,103.9,0)" xlink:href="#at"/><use transform="matrix(0.05,0,0,0.05,113.9,0)" xlink:href="#aB"/><use transform="matrix(0.05,0,0,0.05,119.85000000000001,0)" xlink:href="#aC"/></g><g id="B"><use transform="matrix(0.05,0,0,0.05,0,0)" xlink:href="#aA"/><use transform="matrix(0.05,0,0,0.05,9,0)" xlink:href="#aE"/><use transform="matrix(0.05,0,0,0.05,19,0)" xlink:href="#ah"/><use transform="matrix(0.05,0,0,0.05,29,0)" xlink:href="#aA"/><use transform="matrix(0.05,0,0,0.05,38,0)" xlink:href="#aF"/><use transform="matrix(0.05,0,0,0.05,47,0)" xlink:href="#ax"/><use transform="matrix(0.05,0,0,0.05,57,0)" xlink:href="#af"/><use transform="matrix(0.05,0,0,0.05,67,0)" xlink:href="#as"/><use transform="matrix(0.05,0,0,0.05,72,0)" xlink:href="#br"/><use transform="matrix(0.05,0,0,0.05,84,0)" xlink:href="#ax"/><use transform="matrix(0.05,0,0,0.05,94,0)" xlink:href="#ax"/><use transform="matrix(0.05,0,0,0.05,104,0)" xlink:href="#aF"/><use transform="matrix(0.05,0,0,0.05,113,0)" xlink:href="#aB"/><use transform="matrix(0.05,0,0,0.05,118.95,0)" xlink:href="#aC"/></g><path fill="#333" d="M182-130c37 4 62 22 62 59C244 23 116-4 24 0v-248c84 5 203-23 205 63 0 31-19 50-47 55zM76-148c40-3 101 13 101-30 0-44-60-28-101-31v61zm0 110c48-3 116 14 116-37 0-48-69-32-116-35v72" id="bx"/><path fill="#333" d="M110-194c64 0 96 36 96 99 0 64-35 99-97 99-61 0-95-36-95-99 0-62 34-99 96-99zm-1 164c35 0 45-28 45-65 0-40-10-65-43-65-34 0-45 26-45 65 0 36 10 65 43 65" id="by"/><path fill="#333" d="M147 0L96-86 75-71V0H25v-261h50v150l67-79h53l-66 74L201 0h-54" id="bz"/><g id="C"><use transform="matrix(0.05,0,0,0.05,0,0)" xlink:href="#bx"/><use transform="matrix(0.05,0,0,0.05,12.950000000000001,0)" xlink:href="#by"/><use transform="matrix(0.05,0,0,0.05,23.900000000000002,0)" xlink:href="#by"/><use transform="matrix(0.05,0,0,0.05,34.85,0)" xlink:href="#bz"/></g><path fill="#333" d="M115-194c53 0 69 39 70 98 0 66-23 100-70 100C84 3 66-7 56-30L54 0H23l1-261h32v101c10-23 28-34 59-34zm-8 174c40 0 45-34 45-75 0-40-5-75-45-74-42 0-51 32-51 76 0 43 10 73 51 73" id="bA"/><g id="D"><use transform="matrix(0.05,0,0,0.05,0,0)" xlink:href="#ap"/><use transform="matrix(0.05,0,0,0.05,3.95,0)" xlink:href="#ag"/><use transform="matrix(0.05,0,0,0.05,12.949999999999998,0)" xlink:href="#bA"/><use transform="matrix(0.05,0,0,0.05,22.95,0)" xlink:href="#at"/><use transform="matrix(0.05,0,0,0.05,32.95,0)" xlink:href="#al"/></g><g id="E"><use transform="matrix(0.05,0,0,0.05,0,0)" xlink:href="#as"/><use transform="matrix(0.05,0,0,0.05,5,0)" xlink:href="#ap"/><use transform="matrix(0.05,0,0,0.05,8.95,0)" xlink:href="#as"/><use transform="matrix(0.05,0,0,0.05,13.949999999999998,0)" xlink:href="#aq"/><use transform="matrix(0.05,0,0,0.05,17.9,0)" xlink:href="#ah"/><use transform="matrix(0.05,0,0,0.05,27.899999999999995,0)" xlink:href="#al"/></g><g id="F"><use transform="matrix(0.05,0,0,0.05,0,0)" xlink:href="#ao"/><use transform="matrix(0.05,0,0,0.05,10,0)" xlink:href="#af"/><use transform="matrix(0.05,0,0,0.05,20,0)" xlink:href="#as"/><use transform="matrix(0.05,0,0,0.05,25,0)" xlink:href="#aE"/><use transform="matrix(0.05,0,0,0.05,35,0)" xlink:href="#ax"/><use transform="matrix(0.05,0,0,0.05,45,0)" xlink:href="#ai"/><use transform="matrix(0.05,0,0,0.05,50.95,0)" xlink:href="#al"/></g><g id="G"><use transform="matrix(0.05,0,0,0.05,0,0)" xlink:href="#au"/><use transform="matrix(0.05,0,0,0.05,10,0)" xlink:href="#ah"/><use transform="matrix(0.05,0,0,0.05,20,0)" xlink:href="#at"/><use transform="matrix(0.05,0,0,0.05,30,0)" xlink:href="#ai"/><use transform="matrix(0.05,0,0,0.05,35.95,0)" xlink:href="#ah"/><use transform="matrix(0.05,0,0,0.05,45.95,0)" xlink:href="#al"/></g><path fill="#333" d="M145-31C134-9 116 4 85 4 32 4 16-35 15-94c0-59 17-99 70-100 32-1 48 14 60 33 0-11-1-24 2-32h30l-1 268h-32zM93-21c41 0 51-33 51-76s-8-73-50-73c-40 0-46 35-46 75s5 74 45 74" id="bB"/><path fill="#333" d="M179-190L93 31C79 59 56 82 12 73V49c39 6 53-20 64-50L1-190h34L92-34l54-156h33" id="bC"/><g id="H"><use transform="matrix(0.05,0,0,0.05,0,0)" xlink:href="#bB"/><use transform="matrix(0.05,0,0,0.05,10,0)" xlink:href="#af"/><use transform="matrix(0.05,0,0,0.05,20,0)" xlink:href="#ao"/><use transform="matrix(0.05,0,0,0.05,30,0)" xlink:href="#at"/><use transform="matrix(0.05,0,0,0.05,40,0)" xlink:href="#as"/><use transform="matrix(0.05,0,0,0.05,45,0)" xlink:href="#ap"/><use transform="matrix(0.05,0,0,0.05,48.95,0)" xlink:href="#as"/><use transform="matrix(0.05,0,0,0.05,53.95,0)" xlink:href="#bC"/><use transform="matrix(0.05,0,0,0.05,62.95,0)" xlink:href="#al"/></g><g id="I"><use transform="matrix(0.05,0,0,0.05,0,0)" xlink:href="#aj"/><use transform="matrix(0.05,0,0,0.05,5,0)" xlink:href="#at"/><use transform="matrix(0.05,0,0,0.05,15,0)" xlink:href="#as"/><use transform="matrix(0.05,0,0,0.05,20,0)" xlink:href="#ah"/><use transform="matrix(0.05,0,0,0.05,30,0)" xlink:href="#au"/><use transform="matrix(0.05,0,0,0.05,40,0)" xlink:href="#ah"/><use transform="matrix(0.05,0,0,0.05,50,0)" xlink:href="#ai"/></g><g id="J"><use transform="matrix(0.05,0,0,0.05,0,0)" xlink:href="#au"/><use transform="matrix(0.05,0,0,0.05,10,0)" xlink:href="#ah"/><use transform="matrix(0.05,0,0,0.05,20,0)" xlink:href="#as"/><use transform="matrix(0.05,0,0,0.05,25,0)" xlink:href="#br"/><use transform="matrix(0.05,0,0,0.05,37,0)" xlink:href="#ax"/><use transform="matrix(0.05,0,0,0.05,47,0)" xlink:href="#ax"/><use transform="matrix(0.05,0,0,0.05,57,0)" xlink:href="#aF"/><use transform="matrix(0.05,0,0,0.05,66,0)" xlink:href="#ag"/><use transform="matrix(0.05,0,0,0.05,75,0)" xlink:href="#aB"/><use transform="matrix(0.05,0,0,0.05,80.95,0)" xlink:href="#aC"/></g><g id="K"><use transform="matrix(0.05,0,0,0.05,0,0)" xlink:href="#au"/><use transform="matrix(0.05,0,0,0.05,10,0)" xlink:href="#ah"/><use transform="matrix(0.05,0,0,0.05,20,0)" xlink:href="#as"/><use transform="matrix(0.05,0,0,0.05,25,0)" xlink:href="#br"/><use transform="matrix(0.05,0,0,0.05,37,0)" xlink:href="#ax"/><use transform="matrix(0.05,0,0,0.05,47,0)" xlink:href="#ax"/><use transform="matrix(0.05,0,0,0.05,57,0)" xlink:href="#aF"/><use transform="matrix(0.05,0,0,0.05,66,0)" xlink:href="#aB"/><use transform="matrix(0.05,0,0,0.05,71.95,0)" xlink:href="#aC"/></g><path fill="#333" d="M169-182c-1-43-94-46-97-3 18 66 151 10 154 114 3 95-165 93-204 36-6-8-10-19-12-30l50-8c3 46 112 56 116 5-17-69-150-10-154-114-4-87 153-88 188-35 5 8 8 18 10 28" id="bD"/><g id="L"><use transform="matrix(0.05,0,0,0.05,0,0)" xlink:href="#bD"/><use transform="matrix(0.05,0,0,0.05,12,0)" xlink:href="#ad"/><use transform="matrix(0.05,0,0,0.05,22,0)" xlink:href="#ac"/><use transform="matrix(0.05,0,0,0.05,32,0)" xlink:href="#ac"/><use transform="matrix(0.05,0,0,0.05,42,0)" xlink:href="#bk"/><use transform="matrix(0.05,0,0,0.05,47,0)" xlink:href="#by"/><use transform="matrix(0.05,0,0,0.05,57.95,0)" xlink:href="#bn"/></g><g id="M"><use transform="matrix(0.05,0,0,0.05,0,0)" xlink:href="#ag"/><use transform="matrix(0.05,0,0,0.05,9,0)" xlink:href="#ah"/><use transform="matrix(0.05,0,0,0.05,19,0)" xlink:href="#ag"/><use transform="matrix(0.05,0,0,0.05,28,0)" xlink:href="#ag"/><use transform="matrix(0.05,0,0,0.05,37,0)" xlink:href="#ap"/><use transform="matrix(0.05,0,0,0.05,40.95,0)" xlink:href="#ax"/><use transform="matrix(0.05,0,0,0.05,50.95,0)" xlink:href="#at"/><use transform="matrix(0.05,0,0,0.05,60.95,0)" xlink:href="#aj"/><use transform="matrix(0.05,0,0,0.05,65.95,0)" xlink:href="#ak"/><use transform="matrix(0.05,0,0,0.05,78.9,0)" xlink:href="#al"/></g><g id="N"><use transform="matrix(0.05,0,0,0.05,0,0)" xlink:href="#ay"/><use transform="matrix(0.05,0,0,0.05,10,0)" xlink:href="#ao"/><use transform="matrix(0.05,0,0,0.05,20,0)" xlink:href="#as"/><use transform="matrix(0.05,0,0,0.05,25,0)" xlink:href="#ah"/><use transform="matrix(0.05,0,0,0.05,35,0)" xlink:href="#aD"/><use transform="matrix(0.05,0,0,0.05,47.95,0)" xlink:href="#ai"/><use transform="matrix(0.05,0,0,0.05,53.900000000000006,0)" xlink:href="#ah"/><use transform="matrix(0.05,0,0,0.05,63.900000000000006,0)" xlink:href="#ao"/><use transform="matrix(0.05,0,0,0.05,73.9,0)" xlink:href="#as"/><use transform="matrix(0.05,0,0,0.05,78.9,0)" xlink:href="#ah"/><use transform="matrix(0.05,0,0,0.05,88.9,0)" xlink:href="#ay"/><use transform="matrix(0.05,0,0,0.05,98.9,0)" xlink:href="#al"/></g><path fill="#333" d="M127-220V0H93v-220H8v-28h204v28h-85" id="bE"/><g id="O"><use transform="matrix(0.05,0,0,0.05,0,0)" xlink:href="#bE"/><use transform="matrix(0.05,0,0,0.05,10.3,0)" xlink:href="#ap"/><use transform="matrix(0.05,0,0,0.05,14.25,0)" xlink:href="#an"/><use transform="matrix(0.05,0,0,0.05,29.200000000000003,0)" xlink:href="#ah"/><use transform="matrix(0.05,0,0,0.05,39.2,0)" xlink:href="#ag"/><use transform="matrix(0.05,0,0,0.05,48.2,0)" xlink:href="#as"/><use transform="matrix(0.05,0,0,0.05,53.2,0)" xlink:href="#ao"/><use transform="matrix(0.05,0,0,0.05,63.2,0)" xlink:href="#an"/><use transform="matrix(0.05,0,0,0.05,78.15,0)" xlink:href="#av"/></g><path fill="#333" d="M141 0L90-78 38 0H4l68-98-65-92h35l48 74 47-74h35l-64 92 68 98h-35" id="bF"/><g id="P"><use transform="matrix(0.05,0,0,0.05,0,0)" xlink:href="#ay"/><use transform="matrix(0.05,0,0,0.05,10,0)" xlink:href="#ao"/><use transform="matrix(0.05,0,0,0.05,20,0)" xlink:href="#as"/><use transform="matrix(0.05,0,0,0.05,25,0)" xlink:href="#ah"/><use transform="matrix(0.05,0,0,0.05,35,0)" xlink:href="#bw"/><use transform="matrix(0.05,0,0,0.05,47,0)" xlink:href="#bF"/><use transform="matrix(0.05,0,0,0.05,56,0)" xlink:href="#av"/><use transform="matrix(0.05,0,0,0.05,66,0)" xlink:href="#ap"/><use transform="matrix(0.05,0,0,0.05,69.95,0)" xlink:href="#ai"/><use transform="matrix(0.05,0,0,0.05,75.9,0)" xlink:href="#ah"/><use transform="matrix(0.05,0,0,0.05,85.9,0)" xlink:href="#ag"/><use transform="matrix(0.05,0,0,0.05,94.9,0)" xlink:href="#al"/></g><g id="Q"><use transform="matrix(0.05,0,0,0.05,0,0)" xlink:href="#bE"/><use transform="matrix(0.05,0,0,0.05,10.3,0)" xlink:href="#ap"/><use transform="matrix(0.05,0,0,0.05,14.25,0)" xlink:href="#an"/><use transform="matrix(0.05,0,0,0.05,29.200000000000003,0)" xlink:href="#ah"/><use transform="matrix(0.05,0,0,0.05,39.2,0)" xlink:href="#ag"/><use transform="matrix(0.05,0,0,0.05,48.2,0)" xlink:href="#as"/><use transform="matrix(0.05,0,0,0.05,53.2,0)" xlink:href="#ao"/><use transform="matrix(0.05,0,0,0.05,63.2,0)" xlink:href="#an"/><use transform="matrix(0.05,0,0,0.05,78.15,0)" xlink:href="#av"/></g><g id="R"><use transform="matrix(0.05,0,0,0.05,0,0)" xlink:href="#au"/><use transform="matrix(0.05,0,0,0.05,10,0)" xlink:href="#ah"/><use transform="matrix(0.05,0,0,0.05,20,0)" xlink:href="#as"/><use transform="matrix(0.05,0,0,0.05,25,0)" xlink:href="#ar"/><use transform="matrix(0.05,0,0,0.05,37,0)" xlink:href="#ah"/><use transform="matrix(0.05,0,0,0.05,47,0)" xlink:href="#ag"/><use transform="matrix(0.05,0,0,0.05,56,0)" xlink:href="#ag"/><use transform="matrix(0.05,0,0,0.05,65,0)" xlink:href="#ap"/><use transform="matrix(0.05,0,0,0.05,68.95,0)" xlink:href="#ax"/><use transform="matrix(0.05,0,0,0.05,78.95,0)" xlink:href="#at"/><use transform="matrix(0.05,0,0,0.05,88.95,0)" xlink:href="#aB"/><use transform="matrix(0.05,0,0,0.05,94.9,0)" xlink:href="#aC"/></g><path fill="#333" d="M108 0H70L1-190h34L89-25l56-165h34" id="bG"/><g id="S"><use transform="matrix(0.05,0,0,0.05,0,0)" xlink:href="#bG"/><use transform="matrix(0.05,0,0,0.05,9,0)" xlink:href="#ao"/><use transform="matrix(0.05,0,0,0.05,19,0)" xlink:href="#aq"/><use transform="matrix(0.05,0,0,0.05,22.95,0)" xlink:href="#ap"/><use transform="matrix(0.05,0,0,0.05,26.899999999999995,0)" xlink:href="#ay"/><use transform="matrix(0.05,0,0,0.05,36.9,0)" xlink:href="#ao"/><use transform="matrix(0.05,0,0,0.05,46.9,0)" xlink:href="#as"/><use transform="matrix(0.05,0,0,0.05,51.900000000000006,0)" xlink:href="#ah"/><use transform="matrix(0.05,0,0,0.05,61.900000000000006,0)" xlink:href="#ar"/><use transform="matrix(0.05,0,0,0.05,73.9,0)" xlink:href="#ah"/><use transform="matrix(0.05,0,0,0.05,83.9,0)" xlink:href="#ag"/><use transform="matrix(0.05,0,0,0.05,92.9,0)" xlink:href="#ag"/><use transform="matrix(0.05,0,0,0.05,101.9,0)" xlink:href="#ap"/><use transform="matrix(0.05,0,0,0.05,105.85000000000001,0)" xlink:href="#ax"/><use transform="matrix(0.05,0,0,0.05,115.85000000000001,0)" xlink:href="#at"/><use transform="matrix(0.05,0,0,0.05,125.85000000000001,0)" xlink:href="#aB"/><use transform="matrix(0.05,0,0,0.05,131.8,0)" xlink:href="#aC"/></g><path fill="#333" d="M67-125c0 53 21 87 73 88 37 1 54-22 65-47l45 17C233-25 199 4 140 4 58 4 20-42 15-125 8-235 124-281 211-232c18 10 29 29 36 50l-46 12c-8-25-30-41-62-41-52 0-71 34-72 86" id="bH"/><path fill="#333" d="M114-157C55-157 80-60 75 0H25v-261h50l-1 109c12-26 28-41 61-42 86-1 58 113 63 194h-50c-7-57 23-157-34-157" id="bI"/><path fill="#333" d="M190-63c-7 42-38 67-86 67-59 0-84-38-90-98-12-110 154-137 174-36l-49 2c-2-19-15-32-35-32-30 0-35 28-38 64-6 74 65 87 74 30" id="bJ"/><path fill="#333" d="M115-3C79 11 28 4 28-45v-112H4v-33h27l15-45h31v45h36v33H77v99c-1 23 16 31 38 25v30" id="bK"/><g id="T"><use transform="matrix(0.05,0,0,0.05,0,0)" xlink:href="#bH"/><use transform="matrix(0.05,0,0,0.05,12.950000000000001,0)" xlink:href="#bI"/><use transform="matrix(0.05,0,0,0.05,23.900000000000002,0)" xlink:href="#ad"/><use transform="matrix(0.05,0,0,0.05,33.900000000000006,0)" xlink:href="#bJ"/><use transform="matrix(0.05,0,0,0.05,43.900000000000006,0)" xlink:href="#bz"/><use transform="matrix(0.05,0,0,0.05,53.900000000000006,0)" xlink:href="#by"/><use transform="matrix(0.05,0,0,0.05,64.85000000000001,0)" xlink:href="#bu"/><use transform="matrix(0.05,0,0,0.05,75.80000000000001,0)" xlink:href="#bK"/></g><g id="U"><use transform="matrix(0.05,0,0,0.05,0,0)" xlink:href="#aA"/><use transform="matrix(0.05,0,0,0.05,9,0)" xlink:href="#aE"/><use transform="matrix(0.05,0,0,0.05,19,0)" xlink:href="#ah"/><use transform="matrix(0.05,0,0,0.05,29,0)" xlink:href="#aA"/><use transform="matrix(0.05,0,0,0.05,38,0)" xlink:href="#aF"/><use transform="matrix(0.05,0,0,0.05,47,0)" xlink:href="#ax"/><use transform="matrix(0.05,0,0,0.05,57,0)" xlink:href="#af"/><use transform="matrix(0.05,0,0,0.05,67,0)" xlink:href="#as"/><use transform="matrix(0.05,0,0,0.05,72,0)" xlink:href="#aj"/><use transform="matrix(0.05,0,0,0.05,77,0)" xlink:href="#ak"/><use transform="matrix(0.05,0,0,0.05,89.95,0)" xlink:href="#al"/></g><g id="V"><use transform="matrix(0.05,0,0,0.05,0,0)" xlink:href="#ai"/><use transform="matrix(0.05,0,0,0.05,5.95,0)" xlink:href="#ah"/><use transform="matrix(0.05,0,0,0.05,15.949999999999998,0)" xlink:href="#as"/><use transform="matrix(0.05,0,0,0.05,20.95,0)" xlink:href="#af"/><use transform="matrix(0.05,0,0,0.05,30.950000000000003,0)" xlink:href="#ai"/><use transform="matrix(0.05,0,0,0.05,36.9,0)" xlink:href="#at"/><use transform="matrix(0.05,0,0,0.05,46.9,0)" xlink:href="#ah"/><use transform="matrix(0.05,0,0,0.05,56.900000000000006,0)" xlink:href="#ay"/><use transform="matrix(0.05,0,0,0.05,66.9,0)" xlink:href="#al"/></g><g id="W"><use transform="matrix(0.05,0,0,0.05,0,0)" xlink:href="#br"/><use transform="matrix(0.05,0,0,0.05,12,0)" xlink:href="#ax"/><use transform="matrix(0.05,0,0,0.05,22,0)" xlink:href="#ax"/><use transform="matrix(0.05,0,0,0.05,32,0)" xlink:href="#aq"/><use transform="matrix(0.05,0,0,0.05,35.95,0)" xlink:href="#ah"/><use transform="matrix(0.05,0,0,0.05,45.95,0)" xlink:href="#ao"/><use transform="matrix(0.05,0,0,0.05,55.95,0)" xlink:href="#at"/></g><g id="X"><use transform="matrix(0.05,0,0,0.05,0,0)" xlink:href="#ay"/><use transform="matrix(0.05,0,0,0.05,10,0)" xlink:href="#ao"/><use transform="matrix(0.05,0,0,0.05,20,0)" xlink:href="#as"/><use transform="matrix(0.05,0,0,0.05,25,0)" xlink:href="#ah"/><use transform="matrix(0.05,0,0,0.05,35,0)" xlink:href="#ak"/><use transform="matrix(0.05,0,0,0.05,47.95,0)" xlink:href="#af"/><use transform="matrix(0.05,0,0,0.05,57.95,0)" xlink:href="#ah"/><use transform="matrix(0.05,0,0,0.05,67.95,0)" xlink:href="#al"/></g><g id="Y"><use transform="matrix(0.05,0,0,0.05,0,0)" xlink:href="#bE"/><use transform="matrix(0.05,0,0,0.05,10.950000000000001,0)" xlink:href="#aj"/><use transform="matrix(0.05,0,0,0.05,15.950000000000001,0)" xlink:href="#an"/><use transform="matrix(0.05,0,0,0.05,30.900000000000002,0)" xlink:href="#ah"/><use transform="matrix(0.05,0,0,0.05,40.900000000000006,0)" xlink:href="#ag"/><use transform="matrix(0.05,0,0,0.05,49.900000000000006,0)" xlink:href="#as"/><use transform="matrix(0.05,0,0,0.05,54.900000000000006,0)" xlink:href="#ao"/><use transform="matrix(0.05,0,0,0.05,64.9,0)" xlink:href="#an"/><use transform="matrix(0.05,0,0,0.05,79.85000000000001,0)" xlink:href="#av"/></g><g id="Z"><use transform="matrix(0.05,0,0,0.05,0,0)" xlink:href="#ay"/><use transform="matrix(0.05,0,0,0.05,10,0)" xlink:href="#ao"/><use transform="matrix(0.05,0,0,0.05,20,0)" xlink:href="#as"/><use transform="matrix(0.05,0,0,0.05,25,0)" xlink:href="#ah"/><use transform="matrix(0.05,0,0,0.05,35,0)" xlink:href="#az"/><use transform="matrix(0.05,0,0,0.05,47.95,0)" xlink:href="#ah"/><use transform="matrix(0.05,0,0,0.05,57.95,0)" xlink:href="#as"/><use transform="matrix(0.05,0,0,0.05,62.95,0)" xlink:href="#af"/><use transform="matrix(0.05,0,0,0.05,72.95,0)" xlink:href="#ai"/><use transform="matrix(0.05,0,0,0.05,78.9,0)" xlink:href="#at"/><use transform="matrix(0.05,0,0,0.05,88.9,0)" xlink:href="#ah"/><use transform="matrix(0.05,0,0,0.05,98.9,0)" xlink:href="#ay"/><use transform="matrix(0.05,0,0,0.05,108.9,0)" xlink:href="#al"/></g><g id="aa"><use transform="matrix(0.05,0,0,0.05,0,0)" xlink:href="#au"/><use transform="matrix(0.05,0,0,0.05,10,0)" xlink:href="#ah"/><use transform="matrix(0.05,0,0,0.05,20,0)" xlink:href="#as"/><use transform="matrix(0.05,0,0,0.05,25,0)" xlink:href="#aD"/><use transform="matrix(0.05,0,0,0.05,37.95,0)" xlink:href="#aE"/><use transform="matrix(0.05,0,0,0.05,47.95,0)" xlink:href="#ah"/><use transform="matrix(0.05,0,0,0.05,57.95,0)" xlink:href="#aA"/><use transform="matrix(0.05,0,0,0.05,66.95,0)" xlink:href="#aF"/><use transform="matrix(0.05,0,0,0.05,75.95,0)" xlink:href="#ax"/><use transform="matrix(0.05,0,0,0.05,85.95,0)" xlink:href="#af"/><use transform="matrix(0.05,0,0,0.05,95.95,0)" xlink:href="#as"/><use transform="matrix(0.05,0,0,0.05,100.95,0)" xlink:href="#br"/><use transform="matrix(0.05,0,0,0.05,112.95,0)" xlink:href="#bC"/><use transform="matrix(0.05,0,0,0.05,121.95,0)" xlink:href="#am"/><use transform="matrix(0.05,0,0,0.05,134.9,0)" xlink:href="#ag"/><use transform="matrix(0.05,0,0,0.05,143.9,0)" xlink:href="#ah"/><use transform="matrix(0.05,0,0,0.05,153.9,0)" xlink:href="#ai"/><use transform="matrix(0.05,0,0,0.05,159.85,0)" xlink:href="#aj"/><use transform="matrix(0.05,0,0,0.05,164.85,0)" xlink:href="#ak"/><use transform="matrix(0.05,0,0,0.05,177.79999999999998,0)" xlink:href="#aB"/><use transform="matrix(0.05,0,0,0.05,183.74999999999997,0)" xlink:href="#aC"/></g></defs></g></svg>